<?xml version="1.0" standalone="no"?>
<!DOCTYPE svg PUBLIC "-//W3C//DTD SVG 20010904//EN"
 "http://www.w3.org/TR/2001/REC-SVG-20010904/DTD/svg10.dtd">
<svg version="1.0" xmlns="http://www.w3.org/2000/svg"
 width="512.000000pt" height="512.000000pt" viewBox="0 0 512.000000 512.000000"
 preserveAspectRatio="xMidYMid meet">

<g transform="translate(0.000000,512.000000) scale(0.100000,-0.100000)"
fill="#000000" stroke="none">
<path d="M440 5104 c0 -8 -18 -46 -39 -82 -22 -37 -63 -115 -92 -174 -30 -60
-56 -108 -59 -108 -3 0 -20 25 -39 56 -45 76 -178 234 -196 234 -23 0 -20 -60
3 -60 28 -1 202 -236 204 -278 1 -9 -17 -64 -40 -122 -55 -141 -108 -308 -129
-402 -12 -57 -19 -75 -28 -68 -7 5 -15 7 -18 3 -4 -3 -7 -66 -7 -140 0 -108 3
-133 14 -133 10 0 16 17 21 53 28 231 120 570 204 752 16 33 38 85 51 115 33
81 108 228 146 288 37 57 43 82 19 82 -8 0 -15 -7 -15 -16z"/>
<path d="M5080 5104 c0 -9 -42 -60 -92 -113 -102 -105 -165 -193 -174 -240 -6
-29 -5 -31 25 -31 45 0 49 -23 16 -88 l-27 -57 -20 35 c-10 19 -16 26 -13 15
4 -11 12 -36 17 -55 5 -19 23 -73 38 -120 108 -326 197 -737 235 -1087 5 -44
11 -63 21 -63 11 0 14 20 14 93 0 97 -5 114 -26 96 -9 -8 -14 9 -19 78 -14
183 -73 454 -160 733 -60 192 -66 244 -33 303 14 25 28 61 32 80 6 31 3 38
-26 60 l-32 26 26 38 c48 68 203 231 221 232 13 1 17 10 17 41 0 33 -3 40 -20
40 -12 0 -20 -7 -20 -16z"/>
<path d="M1797 5023 c-9 -32 -28 -119 -42 -193 -14 -74 -39 -178 -55 -230 -72
-237 -143 -607 -165 -865 -3 -38 -8 -89 -11 -112 l-5 -42 -111 55 c-117 57
-184 81 -194 71 -15 -15 29 -44 161 -108 l140 -67 0 -241 c0 -132 0 -241 -1
-241 0 0 -24 7 -53 16 -29 8 -100 21 -158 29 -58 8 -109 18 -113 22 -4 4 -15
32 -25 61 -19 61 -40 70 -31 15 11 -69 -9 -69 -27 -1 -44 165 -67 354 -67 538
0 174 24 462 55 664 14 88 23 162 20 164 -3 3 -5 1 -5 -4 0 -25 -101 -546
-115 -594 -22 -76 -52 -246 -64 -365 -32 -304 -44 -392 -62 -450 -19 -64 -46
-95 -80 -95 -14 0 -15 6 -8 43 4 23 8 55 9 71 0 47 -25 15 -56 -72 -25 -66
-38 -86 -97 -144 -79 -78 -113 -89 -103 -34 4 19 2 86 -4 149 -11 117 -4 246
35 618 48 452 148 857 286 1157 21 45 36 82 33 82 -8 0 -84 -160 -124 -260
-110 -277 -184 -611 -229 -1045 -30 -287 -35 -412 -22 -605 7 -96 13 -310 15
-475 5 -383 33 -605 103 -800 31 -86 99 -219 133 -260 14 -16 32 -39 40 -50
15 -19 15 -19 -15 -1 -142 89 -252 197 -309 305 -25 46 -36 59 -36 43 0 -13
-4 -21 -9 -17 -15 9 -6 -23 33 -114 38 -86 101 -189 162 -262 19 -22 41 -66
50 -96 9 -30 27 -77 41 -103 17 -33 28 -77 35 -135 12 -109 55 -282 103 -411
47 -125 144 -314 191 -371 20 -24 34 -46 31 -49 -8 -8 -138 107 -184 162 -22
27 -53 68 -68 92 -15 23 -30 41 -32 38 -5 -5 108 -348 145 -438 l27 -68 278 0
c176 0 277 4 277 10 0 14 82 119 125 160 l38 35 -7 -30 c-3 -16 -9 -63 -12
-102 -6 -69 -6 -73 13 -73 18 0 21 8 25 83 6 89 30 158 65 190 29 26 161 79
373 152 151 52 240 87 312 123 13 7 30 -69 23 -108 -16 -92 54 -271 146 -377
41 -46 61 -62 82 -62 15 -1 27 2 27 5 0 4 -32 40 -71 82 -101 106 -131 174
-133 307 -2 72 -8 117 -23 160 -12 33 -24 72 -27 87 -8 33 -4 33 -226 58 -592
69 -1084 198 -1311 345 -137 89 -194 163 -225 293 -12 53 -22 98 -20 99 1 1
40 -20 87 -47 71 -42 188 -90 220 -90 21 0 6 17 -36 39 -64 34 -125 90 -184
170 -68 91 -99 163 -111 252 -15 119 -70 360 -104 456 -16 46 -43 469 -32 499
5 14 16 7 59 -39 29 -32 61 -57 71 -57 19 0 19 7 -5 66 -16 39 2 79 50 111 46
31 51 29 44 -14 -6 -34 -5 -37 9 -25 9 7 26 33 38 58 16 35 30 50 63 64 92 40
343 74 385 51 16 -9 26 -9 41 1 26 16 188 -5 244 -32 22 -11 49 -20 59 -20 10
0 46 -14 80 -31 53 -26 67 -29 91 -20 16 6 27 18 27 29 0 37 -68 100 -155 143
l-85 43 0 227 c0 127 4 230 9 233 5 4 22 2 36 -4 15 -6 45 -14 67 -19 57 -13
44 6 -33 47 -35 18 -67 39 -70 45 -7 13 22 324 40 442 6 39 30 146 54 239 l43
170 -4 -246 c-6 -310 9 -472 64 -725 66 -305 175 -584 267 -688 25 -27 47 -48
50 -45 3 3 -2 29 -12 58 -10 28 -17 52 -15 52 2 0 22 -25 45 -56 38 -49 115
-104 147 -104 5 0 -28 37 -72 83 -66 67 -92 104 -139 196 -33 62 -61 110 -64
107 -5 -5 31 -156 42 -179 4 -7 -1 -3 -10 8 -65 77 -196 505 -235 770 -34 225
-43 377 -37 600 8 269 36 525 83 743 19 89 13 105 -9 25z m-768 -1558 c7 -71
21 -168 32 -215 11 -47 22 -100 26 -117 l6 -33 -45 0 c-25 0 -69 -5 -98 -10
-29 -6 -55 -9 -56 -7 -2 1 6 36 17 77 24 90 74 333 84 409 11 78 21 47 34
-104z"/>
<path d="M2984 4955 c8 -79 23 -278 37 -493 16 -240 6 -639 -20 -799 -35 -217
-62 -335 -107 -470 -48 -146 -107 -280 -100 -227 12 80 18 234 10 234 -5 0
-15 -44 -21 -97 -13 -106 -48 -235 -82 -301 -12 -23 -21 -49 -21 -58 0 -10 -7
-26 -17 -36 -9 -10 -12 -18 -6 -18 19 0 120 126 161 201 72 131 142 353 187
589 8 46 20 89 25 94 6 6 28 16 50 22 l40 12 0 -32 c0 -17 7 -112 15 -211 19
-216 13 -313 -22 -368 -27 -43 -41 -97 -25 -97 6 0 17 -3 26 -6 10 -4 16 -1
16 9 0 24 55 61 161 111 131 61 240 81 444 80 171 0 242 -10 373 -51 70 -22
89 -33 119 -67 31 -37 34 -46 30 -86 -2 -25 -8 -53 -12 -64 -12 -27 6 -18 59
32 l46 43 0 -40 c0 -134 -42 -292 -99 -374 -32 -45 -37 -57 -23 -57 25 0 63
28 116 85 44 46 47 48 41 22 -3 -16 -12 -83 -21 -150 -35 -286 -105 -554 -185
-708 -76 -146 -169 -221 -292 -235 -66 -8 -59 -24 11 -24 85 0 252 78 405 190
19 14 20 13 14 -15 -3 -17 -12 -77 -19 -135 l-12 -104 -70 -74 c-91 -95 -168
-156 -302 -237 -197 -121 -411 -213 -674 -291 -99 -30 -107 -34 -60 -29 l56 6
27 -108 c48 -186 51 -167 -50 -321 -64 -97 -141 -183 -218 -242 -30 -23 -55
-46 -55 -51 0 -5 13 -9 28 -9 99 0 391 386 392 518 0 27 -4 32 -24 32 -25 0
-36 21 -36 69 0 21 3 23 30 18 16 -4 78 -28 137 -56 59 -27 182 -75 273 -106
230 -81 270 -103 270 -153 0 -43 -146 -282 -172 -282 -4 0 -8 -9 -8 -20 0 -13
7 -20 20 -20 13 0 20 7 20 19 0 10 7 25 16 32 32 26 118 164 164 263 131 279
195 529 259 1007 17 128 23 151 49 190 47 70 145 288 140 312 -1 7 3 21 9 32
6 11 13 34 16 50 3 17 10 54 16 84 6 29 11 72 11 95 -1 41 -1 41 -15 16 -8
-14 -24 -54 -36 -90 -58 -176 -156 -325 -272 -413 -83 -63 -94 -65 -57 -12
101 146 177 419 219 785 5 47 22 121 37 165 17 50 23 80 16 83 -12 4 2 44 24
72 18 23 55 223 61 327 l6 91 36 7 c95 17 201 99 264 207 27 46 49 137 27 108
-10 -12 -11 -12 -5 5 47 136 50 214 13 296 -34 75 -78 122 -139 148 -36 16
-59 35 -82 68 -57 81 -62 86 -84 79 -12 -4 -34 -27 -48 -52 -25 -42 -65 -70
-89 -61 -6 3 -19 38 -30 78 -27 107 -86 285 -146 433 -58 147 -178 402 -185
395 -2 -3 17 -54 44 -115 72 -162 211 -565 211 -613 0 -6 -8 -11 -19 -11 -19
0 -31 25 -31 68 0 12 -4 22 -8 22 -9 0 2 -98 22 -198 13 -63 13 -63 -8 -57
-12 4 -32 8 -46 9 -24 1 -25 -2 -31 -64 -3 -44 -14 -80 -31 -110 -35 -61 -51
-144 -46 -254 l3 -91 -25 3 c-40 6 -133 59 -203 117 -218 180 -383 573 -427
1020 -10 105 -22 214 -26 243 -14 109 -14 38 2 -189 17 -254 20 -692 5 -733
-6 -13 -34 -40 -63 -58 -64 -41 -225 -128 -236 -128 -4 0 -17 66 -30 148 -12
81 -30 203 -41 272 -10 69 -22 177 -25 240 -14 245 -58 655 -73 670 -2 3 -2
-22 1 -55z m550 -880 c108 -379 307 -631 564 -714 35 -11 79 -34 98 -50 18
-16 53 -41 77 -56 45 -26 57 -49 57 -112 l0 -25 -34 30 c-21 18 -70 42 -128
61 -254 84 -466 91 -706 24 -51 -14 -95 -23 -98 -21 -2 3 11 63 30 135 70 262
87 376 93 633 4 129 8 231 9 225 2 -5 19 -64 38 -130z m-444 -234 c24 -190 24
-193 -34 -207 -28 -7 -29 -6 -23 22 4 16 12 104 19 196 6 92 13 166 14 165 1
-1 12 -80 24 -176z m1277 33 c-3 -3 -12 -4 -19 -1 -8 3 -5 6 6 6 11 1 17 -2
13 -5z m-937 -217 c-11 -61 -37 -173 -57 -247 -19 -74 -40 -153 -46 -175 -5
-22 -17 -48 -25 -58 -22 -25 -109 -87 -115 -81 -2 3 -2 24 0 47 5 39 -21 392
-33 454 -5 27 -1 30 82 73 48 25 115 64 148 87 46 32 62 39 64 28 2 -8 -6 -66
-18 -128z m1261 98 c44 -23 69 -71 69 -130 0 -57 -17 -88 -60 -110 -36 -19
-54 -19 -93 0 -48 23 -77 72 -77 129 0 58 12 81 53 106 39 24 68 25 108 5z
m-288 -146 c24 -34 33 -106 17 -153 -39 -119 -190 -84 -190 45 0 57 20 112 47
128 10 6 38 10 62 8 34 -1 48 -8 64 -28z m112 -551 c-11 -65 -81 -305 -111
-378 -25 -62 -71 -136 -80 -127 -2 2 4 24 15 48 28 65 43 184 43 351 l0 148
70 0 70 0 -7 -42z"/>
<path d="M4612 3678 c-19 -19 -15 -82 6 -101 24 -22 35 -21 55 1 46 50 -14
147 -61 100z"/>
<path d="M4302 3561 c-8 -5 -12 -23 -10 -47 3 -36 6 -39 34 -42 27 -3 33 1 38
24 5 17 1 35 -9 50 -16 25 -31 29 -53 15z"/>
<path d="M2556 4819 c-11 -45 -36 -264 -51 -439 -9 -96 -18 -328 -22 -515 -9
-512 15 -793 86 -1030 34 -109 35 -115 23 -115 -22 0 -94 193 -128 345 -10 44
-21 84 -26 90 -9 10 -2 -128 12 -245 5 -41 15 -117 21 -168 14 -108 35 -122
32 -21 l-1 64 19 -37 c44 -84 109 -96 109 -19 0 20 -11 75 -25 122 -14 46 -34
134 -45 194 -39 227 -45 326 -44 770 1 406 9 578 43 935 8 85 7 113 -3 69z"/>
<path d="M1121 4584 c0 -11 3 -14 6 -6 3 7 2 16 -1 19 -3 4 -6 -2 -5 -13z"/>
<path d="M3380 2982 c-64 -24 -159 -121 -198 -203 -45 -95 -63 -170 -69 -290
-11 -219 72 -397 216 -462 67 -30 250 -29 336 2 127 46 197 127 230 266 44
187 -17 460 -132 595 -80 93 -261 137 -383 92z m150 -162 c27 -112 61 -194 92
-221 34 -30 83 -49 123 -49 40 0 79 -16 70 -30 -3 -4 -24 -11 -48 -15 -79 -14
-131 -56 -161 -133 -33 -87 -10 -135 27 -56 9 19 24 37 32 40 8 4 15 15 15 25
0 17 8 19 60 19 33 0 60 -4 60 -10 0 -5 19 -10 41 -10 l42 0 -7 -52 c-27 -202
-189 -310 -439 -295 -96 6 -113 14 -171 74 -47 48 -83 117 -99 190 -18 83 -13
103 26 103 18 0 46 4 63 9 38 11 42 9 83 -57 43 -67 79 -93 126 -90 20 1 38 6
41 10 9 14 -56 126 -85 147 -20 14 -57 25 -113 32 -123 16 -136 19 -117 29 8
5 44 14 79 19 75 12 145 45 172 82 28 38 37 90 38 216 0 178 12 183 50 23z"/>
<path d="M1369 2880 c-116 -20 -235 -114 -295 -235 -46 -93 -63 -160 -70 -275
-12 -178 29 -323 111 -399 61 -56 154 -76 319 -68 145 7 176 15 241 64 91 69
137 207 139 413 1 126 -18 210 -74 320 -46 90 -138 165 -215 175 -99 12 -111
12 -156 5z m86 -170 c15 -58 34 -123 44 -145 32 -72 112 -124 191 -125 34 0
70 -11 70 -20 0 -5 -23 -13 -50 -19 -82 -18 -123 -44 -152 -98 -30 -54 -48
-153 -29 -153 6 0 14 8 17 18 6 17 30 73 45 104 5 10 9 23 9 29 0 27 45 48
103 49 33 0 57 4 57 11 0 5 5 7 11 3 17 -10 3 -157 -22 -239 -24 -78 -75 -137
-154 -176 -46 -22 -61 -24 -195 -24 -92 0 -161 5 -189 13 -64 20 -127 84 -152
157 -37 106 -29 154 27 155 12 0 27 7 34 15 7 8 28 15 46 15 24 0 34 5 34 15
0 11 11 15 38 15 43 0 62 -16 85 -70 18 -44 70 -90 102 -90 19 0 22 4 16 23
-22 73 -79 143 -125 151 -12 3 -50 10 -86 16 -105 19 -111 20 -105 30 3 5 31
11 63 15 31 4 85 20 118 36 86 41 96 67 102 262 2 82 8 145 12 140 5 -4 20
-55 35 -113z"/>
<path d="M2825 1810 c-82 -38 -122 -43 -208 -24 -141 31 -147 30 -223 -12 -64
-36 -75 -39 -144 -38 -53 0 -89 7 -122 22 -26 11 -49 18 -51 14 -8 -15 13
-189 33 -266 38 -149 82 -242 152 -322 40 -45 114 -94 142 -94 14 1 1 11 -35
30 -88 46 -147 124 -195 261 -29 83 -54 212 -54 279 l0 46 118 -1 117 0 55 38
c63 43 69 43 170 17 103 -27 155 -26 256 5 37 12 49 -46 48 -235 0 -146 -3
-172 -23 -222 -41 -106 -147 -194 -256 -215 l-40 -7 40 -4 c112 -9 244 114
291 270 29 97 26 491 -4 487 -4 0 -34 -13 -67 -29z"/>
<path d="M5104 1535 c-6 -11 -17 -72 -23 -135 -50 -503 -162 -965 -307 -1267
-30 -62 -54 -117 -54 -123 0 -6 72 -10 200 -10 l200 0 0 30 c0 23 -5 30 -19
30 -15 0 -28 18 -51 64 -59 124 -80 194 -86 284 -5 79 -2 102 34 247 38 153
64 293 77 417 6 54 8 57 23 41 16 -16 17 -9 20 101 5 205 -1 344 -14 321z"/>
<path d="M0 924 c0 -113 4 -203 8 -200 5 3 15 -20 21 -52 7 -31 24 -91 38
-132 22 -66 24 -87 20 -170 -7 -124 -55 -308 -78 -294 -5 3 -9 -13 -9 -35 l0
-41 40 0 c29 0 40 4 40 15 0 8 11 49 26 92 27 84 54 211 54 256 0 15 3 27 8
27 4 -1 25 -40 47 -88 22 -47 68 -128 103 -179 34 -52 62 -100 62 -108 0 -11
11 -15 40 -15 48 0 52 15 14 51 -84 78 -235 358 -299 554 -40 121 -90 336
-100 430 -8 73 -14 95 -26 95 -5 0 -9 -85 -9 -206z"/>
<path d="M4789 758 c-19 -71 -108 -288 -151 -368 -81 -153 -197 -288 -300
-353 -16 -10 -28 -22 -28 -27 0 -6 67 -10 173 -10 l172 0 33 102 c43 137 79
297 96 438 18 145 28 260 21 260 -2 0 -9 -19 -16 -42z"/>
</g>
</svg>
